<svg width="1177" height="658" viewBox="0 0 1177 658" fill="none" xmlns="http://www.w3.org/2000/svg">
<g opacity="0.15" clip-path="url(#clip0)">
<path d="M1097.27 619.692C1096.96 631.544 1094.96 643.292 1091.35 654.589C1091.27 654.852 1091.18 655.11 1091.1 655.372H1069C1069.02 655.137 1069.04 654.875 1069.07 654.589C1070.54 637.72 1062.12 536.271 1051.97 518.713C1052.86 520.137 1098.99 566.09 1097.27 619.692Z" fill="#F1F1F1"/>
<path d="M1095.62 654.589C1095.43 654.852 1095.24 655.114 1095.04 655.372H1078.46C1078.59 655.149 1078.74 654.887 1078.9 654.589C1081.64 649.667 1089.75 634.949 1097.27 619.692C1105.36 603.296 1112.78 586.278 1112.15 580.119C1112.35 581.507 1117.94 623.856 1095.62 654.589Z" fill="#F1F1F1"/>
<path d="M61.1606 628.873C61.3974 637.675 62.8781 646.4 65.5591 654.791C65.6185 654.985 65.6845 655.177 65.7487 655.372H82.1618C82.1446 655.197 82.1268 655.002 82.1095 654.791C81.0152 642.262 87.2671 566.917 94.8112 553.876C94.1502 554.934 59.888 589.063 61.1606 628.873Z" fill="#F1F1F1"/>
<path d="M62.3914 654.791C62.5287 654.986 62.6713 655.18 62.8176 655.372H75.1311C75.0378 655.206 74.9296 655.012 74.8042 654.791C72.7702 651.135 66.7495 640.204 61.161 628.873C55.1576 616.696 49.6451 604.057 50.1094 599.483C49.9655 600.514 45.8095 631.965 62.3914 654.791Z" fill="#F1F1F1"/>
<path d="M863.02 461.553C739.056 409.236 626.905 411.225 521.267 443.156C358.503 414.848 247.048 419.228 175.557 461.553V330.15H863.02V461.553Z" fill="#CBCBCB"/>
<path d="M863.019 425.417C748.813 373.884 634.745 370.557 518.958 425.417C400.363 391.412 285.716 391.768 174.896 425.417V25.952C292.721 -9.06806 407.333 -8.22651 518.958 25.952C636.871 -8.10845 751.661 -9.18869 863.019 25.952V425.417Z" fill="#E5E5E5"/>
<path d="M205.846 75.5252L202.004 65.7334C203.51 65.1476 239.488 51.2964 292.289 44.231C341.106 37.6974 413.837 36.1376 483.107 65.8002L478.937 75.4578C411.983 46.7878 341.403 48.2975 293.982 54.611C242.368 61.4846 206.205 75.3853 205.846 75.5252Z" fill="white"/>
<path d="M205.846 112.318L202.004 102.526C203.51 101.94 239.488 88.0892 292.289 81.0237C341.106 74.4908 413.837 72.931 483.107 102.593L478.937 112.25C411.983 83.5805 341.403 85.089 293.982 91.4037C242.368 98.2774 206.205 112.178 205.846 112.318Z" fill="white"/>
<path d="M205.846 149.111L202.004 139.319C203.51 138.733 239.488 124.882 292.289 117.817C341.106 111.283 413.837 109.723 483.107 139.386L478.937 149.043C411.983 120.373 341.403 121.882 293.982 128.197C242.368 135.07 206.205 148.971 205.846 149.111Z" fill="white"/>
<path d="M205.846 185.904L202.004 176.112C203.51 175.526 239.488 161.675 292.289 154.61C341.106 148.077 413.837 146.516 483.107 176.179L478.937 185.836C411.983 157.166 341.403 158.675 293.982 164.99C242.368 171.863 206.205 185.764 205.846 185.904Z" fill="white"/>
<path d="M205.846 222.697L202.004 212.905C203.51 212.319 239.488 198.468 292.289 191.402C341.106 184.869 413.837 183.309 483.107 212.972L478.937 222.629C411.983 193.959 341.403 195.468 293.982 201.782C242.368 208.656 206.205 222.557 205.846 222.697Z" fill="white"/>
<path d="M205.846 259.489L202.004 249.698C203.51 249.112 239.488 235.261 292.289 228.195C341.106 221.663 413.837 220.102 483.107 249.764L478.937 259.422C411.983 230.751 341.403 232.262 293.982 238.575C242.368 245.449 206.205 259.349 205.846 259.489Z" fill="white"/>
<path d="M550.237 337.017L546.396 327.225C547.901 326.64 583.88 312.788 636.681 305.723C685.498 299.191 758.228 297.63 827.499 327.292L823.329 336.95C756.375 308.279 685.795 309.789 638.374 316.103C586.759 322.977 550.596 336.877 550.237 337.017Z" fill="#79A7E6"/>
<path d="M546.997 266.405V65.4505L550.701 64.2982C644.575 35.0963 737.994 35.1021 828.362 64.3155L832.01 65.4948V266.137L824.869 263.453C730.828 228.107 639.795 228.086 554.297 263.39L546.997 266.405ZM686.288 226.392C730.472 226.392 775.528 234.594 821.454 250.998V73.1519C735.536 46.1687 646.782 46.1835 557.553 73.1948V250.754C598.552 234.668 642.223 226.404 686.288 226.392Z" fill="white"/>
<path d="M821.674 331.81L823.056 298.367L870.488 204.454C871.825 201.784 874.006 199.625 876.694 198.308C878.341 197.491 880.135 197.008 881.971 196.888C883.807 196.769 885.649 197.015 887.388 197.613C889.403 198.305 891.23 199.451 892.727 200.962C894.223 202.472 895.35 204.307 896.017 206.322C896.304 207.192 896.505 208.088 896.618 208.997C896.955 211.693 896.476 214.429 895.243 216.853L847.747 310.893L821.674 331.81Z" fill="#79A7E6"/>
<path d="M882.603 197.519L831.116 299.461L827.19 297.495L876.987 198.898C878.733 198.028 880.651 197.557 882.603 197.519Z" fill="#3F3D56"/>
<path d="M895.963 209.08L846.439 307.137L842.514 305.17L893.894 203.439C894.526 204.399 895.029 205.438 895.391 206.528C895.664 207.358 895.855 208.213 895.963 209.08Z" fill="#3F3D56"/>
<path d="M891.033 200.33L838.977 303.399L835.052 301.433L887.173 198.235C887.728 198.424 888.27 198.651 888.794 198.914C889.585 199.312 890.335 199.786 891.033 200.33Z" fill="#3F3D56"/>
<path d="M827.629 326.191L822.391 330.392L822.83 319.316C824.628 319.937 826.575 322.633 827.629 326.191Z" fill="#3F3D56"/>
<path d="M310.974 446.907L304.703 427.964L311.384 365.678C311.567 363.909 312.329 362.25 313.552 360.954C314.298 360.154 315.197 359.51 316.196 359.06C317.195 358.61 318.274 358.363 319.37 358.333C320.639 358.298 321.9 358.556 323.053 359.086C324.205 359.616 325.22 360.404 326.017 361.389C326.36 361.814 326.66 362.272 326.915 362.755C327.671 364.189 327.98 365.814 327.802 367.424L321.112 429.795L310.974 446.907Z" fill="#79A7E6"/>
<path d="M316.68 359.28L309.428 426.892L306.824 426.615L313.838 361.222C314.628 360.372 315.599 359.709 316.68 359.28Z" fill="#3F3D56"/>
<path d="M326.567 362.938L319.592 427.973L316.988 427.696L324.225 360.224C324.78 360.628 325.279 361.102 325.71 361.634C326.037 362.04 326.324 362.477 326.567 362.938Z" fill="#3F3D56"/>
<path d="M321.974 359.087L314.643 427.446L312.039 427.169L319.38 358.725C319.73 358.714 320.08 358.728 320.428 358.765C320.953 358.821 321.471 358.929 321.974 359.087Z" fill="#3F3D56"/>
<path d="M313.112 442.529L311.075 445.966L308.987 439.696C310.121 439.667 311.775 440.764 313.112 442.529Z" fill="#3F3D56"/>
<path d="M990.21 424.693C989.496 425.937 988.543 427.029 987.405 427.906C986.267 428.783 984.966 429.429 983.577 429.805C980.773 430.566 977.78 430.187 975.257 428.75C972.734 427.313 970.887 424.937 970.123 422.145C969.359 419.352 969.74 416.371 971.183 413.859C971.208 413.816 971.232 413.774 971.257 413.732C971.564 413.22 971.909 412.733 972.29 412.273L963.071 346.84L962.795 344.88L960.923 331.528L960.646 329.603L961.667 329.651L979.528 330.464L984.317 330.679L984.917 342.86L988.314 411.341C990.089 413.032 991.241 415.268 991.585 417.69C991.929 420.111 991.445 422.578 990.21 424.693H990.21Z" fill="#FFB8B8"/>
<path d="M962.848 345.473L985.528 343.401C986.704 343.29 987.788 342.721 988.545 341.817C989.301 340.913 989.668 339.748 989.565 338.576L985.364 291.608C984.959 287.085 982.765 282.907 979.266 279.993C975.768 277.08 971.25 275.671 966.708 276.074C962.165 276.478 957.97 278.663 955.044 282.147C952.119 285.631 950.704 290.13 951.109 294.654C951.138 294.977 951.176 295.3 951.224 295.621L958.025 341.689C958.181 342.745 958.713 343.709 959.523 344.407C960.333 345.105 961.368 345.49 962.44 345.492C962.576 345.494 962.712 345.488 962.848 345.473Z" fill="#CBCBCB"/>
<path d="M980.038 307.529C982.332 301.058 982.438 294.018 980.341 287.482C978.243 280.945 974.057 275.271 968.42 271.325C959.868 265.497 948.165 263.405 935.561 278.347C920.31 296.588 909.432 318.05 903.753 341.103L955.367 349.47C955.367 349.47 972.919 328.103 980.038 307.529Z" fill="#CBCBCB"/>
<path d="M896.56 644.144H881.844L874.844 587.619H896.562L896.56 644.144Z" fill="#FFB8B8"/>
<path d="M853.467 657.751H899.716V639.956H871.336C866.597 639.956 862.052 641.831 858.701 645.168C855.349 648.505 853.467 653.031 853.467 657.751Z" fill="#79A7E6"/>
<path d="M1017.55 631.362L1003.57 635.962L979.111 584.481L999.733 577.693L1017.55 631.362Z" fill="#FFB8B8"/>
<path d="M980.915 657.751L1024.83 643.296L1019.22 626.4L992.274 635.27C987.774 636.751 984.05 639.952 981.919 644.168C979.789 648.383 979.428 653.269 980.915 657.751Z" fill="#79A7E6"/>
<path d="M947.637 256.504C963.919 256.504 977.119 243.359 977.119 227.145C977.119 210.93 963.919 197.786 947.637 197.786C931.355 197.786 918.156 210.93 918.156 227.145C918.156 243.359 931.355 256.504 947.637 256.504Z" fill="#FFB8B8"/>
<path d="M921.826 628.41L935.491 538.586C935.637 537.627 936.113 536.749 936.837 536.101C937.561 535.453 938.489 535.076 939.461 535.033C940.434 534.991 941.391 535.286 942.169 535.869C942.948 536.452 943.499 537.285 943.728 538.227L964.539 623.828C964.867 625.14 965.675 626.282 966.805 627.03C967.935 627.779 969.305 628.08 970.646 627.874L1028.05 618.687C1028.81 618.565 1029.54 618.283 1030.18 617.859C1030.82 617.434 1031.37 616.878 1031.78 616.226C1032.19 615.575 1032.45 614.845 1032.55 614.084C1032.65 613.322 1032.59 612.549 1032.36 611.814L957.511 366.052C957.299 365.353 957.274 364.611 957.438 363.9L959.93 353.142C960.204 351.976 960.077 350.752 959.571 349.666C959.065 348.579 958.208 347.693 957.137 347.149C946.944 341.969 921.127 331.202 901.645 342.996C901.012 343.38 900.465 343.889 900.036 344.49C899.607 345.092 899.305 345.774 899.149 346.495L840.674 620.192C840.515 620.936 840.516 621.706 840.678 622.449C840.839 623.193 841.158 623.894 841.611 624.506C842.065 625.119 842.644 625.628 843.31 626.001C843.976 626.374 844.714 626.602 845.475 626.67L916.003 632.959C916.163 632.974 916.323 632.981 916.483 632.981C917.774 632.979 919.022 632.517 920.001 631.678C920.981 630.84 921.626 629.68 921.822 628.409L921.826 628.41Z" fill="#79A7E6"/>
<path d="M967.187 206.402C964.965 205.071 962.993 203.364 961.359 201.358C960.553 200.344 960.022 199.141 959.818 197.864C959.615 196.587 959.744 195.279 960.195 194.066C961.685 190.793 966.11 189.763 969.541 190.874C972.971 191.984 975.621 194.665 978.127 197.248C980.334 199.519 982.605 201.901 983.648 204.888C984.691 207.875 984.157 211.663 981.553 213.476C978.996 215.255 975.32 214.527 972.862 212.617C970.541 210.528 968.69 207.974 967.431 205.122L967.187 206.402Z" fill="#79A7E6"/>
<path d="M977.173 198.037C977.336 189.765 986.804 183.833 994.982 185.299C1003.16 186.766 1009.44 193.709 1012.59 201.366C1019.24 217.545 1014.25 236.006 1007.84 252.288C1001.44 268.569 993.512 285.087 994.447 302.543C995.079 311.979 998.259 321.069 1003.65 328.853C1009.04 336.638 1016.44 342.829 1025.07 346.771C1015.84 350.937 1004.81 346.634 997.059 340.139C979.836 325.717 973.189 300.04 981.261 279.124C985.243 268.807 992.26 259.981 997.738 250.369C1003.22 240.757 1007.24 229.429 1004.41 218.742C1001.58 208.054 989.541 199.402 979.251 203.537L977.173 198.037Z" fill="#79A7E6"/>
<path d="M945.871 240.173C948.441 235.848 951.032 230.17 946.336 226.389C945.315 225.605 944.146 225.031 942.899 224.703C941.652 224.375 940.352 224.298 939.074 224.477C933.779 225.113 928.011 225.375 922.885 223.458C920.962 222.8 919.192 221.763 917.679 220.409C916.167 219.056 914.943 217.414 914.08 215.58C911.439 209.335 914.748 201.747 920.28 197.8C923.664 195.473 927.664 194.193 931.776 194.121C935.888 194.048 939.93 195.187 943.396 197.393C950.562 194.241 959.256 195.643 965.766 199.982C972.277 204.321 976.731 211.27 979.151 218.689C981.38 225.075 981.764 231.957 980.259 238.55C979.047 243.136 976.744 247.364 973.544 250.876C970.344 254.389 966.341 257.081 961.875 258.726C960.135 259.409 958.245 259.625 956.395 259.353C954.545 259.08 952.8 258.328 951.333 257.172C948.95 255.043 947.12 252.372 945.999 249.385C945.021 246.114 944.499 242.483 945.871 240.173Z" fill="#79A7E6"/>
<path d="M858.412 266.37C858.559 267.015 858.655 267.67 858.699 268.33L910.261 297.953L922.794 290.768L936.155 308.186L915.209 323.054C913.517 324.256 911.479 324.878 909.401 324.827C907.323 324.777 905.318 324.057 903.686 322.774L850.512 281.002C848.111 281.887 845.497 282.024 843.017 281.394C840.537 280.763 838.308 279.396 836.628 277.473C834.947 275.551 833.894 273.164 833.609 270.631C833.324 268.098 833.82 265.538 835.031 263.293C836.242 261.047 838.112 259.222 840.39 258.061C842.668 256.899 845.248 256.456 847.785 256.79C850.323 257.124 852.698 258.219 854.595 259.931C856.492 261.642 857.821 263.888 858.405 266.37L858.412 266.37Z" fill="#FFB8B8"/>
<path d="M911.987 299.356L928.652 320.865C929.127 321.477 929.727 321.979 930.414 322.338C931.1 322.698 931.857 322.906 932.631 322.948C933.405 322.99 934.18 322.866 934.902 322.584C935.624 322.301 936.276 321.867 936.815 321.311L955.68 301.802C957.267 300.633 958.606 299.163 959.622 297.478C960.638 295.792 961.309 293.924 961.598 291.979C961.888 290.035 961.789 288.052 961.307 286.146C960.826 284.24 959.971 282.447 958.793 280.87C957.614 279.293 956.135 277.963 954.439 276.956C952.744 275.949 950.866 275.286 948.912 275.003C946.959 274.721 944.969 274.825 943.056 275.31C941.143 275.795 939.345 276.651 937.764 277.829C937.601 277.95 937.441 278.074 937.283 278.201L913.622 291.376C912.945 291.754 912.357 292.272 911.899 292.896C911.441 293.52 911.123 294.235 910.968 294.993C910.812 295.75 910.823 296.532 910.998 297.285C911.173 298.038 911.509 298.744 911.983 299.356H911.987Z" fill="#CBCBCB"/>
<path d="M275.186 642.309L291.183 642.308L298.794 580.862L275.184 580.864L275.186 642.309Z" fill="#A0616A"/>
<path d="M271.104 637.108L302.608 637.107H302.609C307.934 637.107 313.04 639.213 316.805 642.963C320.57 646.712 322.685 651.797 322.686 657.099V657.749L271.105 657.751L271.104 637.108Z" fill="#79A7E6"/>
<path d="M150.63 635.413L166.447 637.794L183.195 578.172L162.459 574.658L150.63 635.413Z" fill="#A0616A"/>
<path d="M147.374 629.663L178.524 634.351L178.525 634.352C183.79 635.145 188.522 637.988 191.682 642.255C194.842 646.523 196.17 651.866 195.375 657.109L195.277 657.751L144.276 650.074L147.374 629.663Z" fill="#79A7E6"/>
<path d="M199.951 337.798L217.712 342.432L216.531 371.109L216.384 423.321C218.134 424.526 219.475 426.232 220.231 428.213C220.986 430.194 221.119 432.356 220.613 434.414C220.108 436.472 218.986 438.329 217.398 439.739C215.809 441.148 213.828 442.044 211.717 442.308C209.606 442.573 207.465 442.192 205.575 441.218C203.686 440.244 202.138 438.721 201.137 436.851C200.136 434.982 199.728 432.854 199.967 430.748C200.207 428.643 201.082 426.66 202.478 425.061L197.021 372.658L199.951 337.798Z" fill="#A0616A"/>
<path d="M196.86 304.951C196.958 302.18 197.855 299.495 199.444 297.218C201.034 294.941 203.248 293.168 205.823 292.111C208.232 291.037 210.905 290.687 213.511 291.105C216.118 291.522 218.545 292.689 220.496 294.461C221.897 295.708 223.009 297.245 223.753 298.964C224.497 300.683 224.856 302.543 224.804 304.414C224.851 321.214 221.042 345.701 221.004 345.945L220.943 346.335L194.981 355.041L196.86 304.951Z" fill="#CBCBCB"/>
<path d="M243.28 352.639L282.989 342.403L301.344 403.965L301.997 633.308L271.631 633.119L258.938 447.495L178.039 619.015L145.419 615.117L216.531 431.252C216.531 431.252 212.617 398.767 225.013 382.525L222.403 365.633L243.28 352.639Z" fill="#79A7E6"/>
<path d="M216.506 367.955C215.951 367.283 215.548 366.5 215.324 365.659C215.1 364.818 215.06 363.939 215.208 363.081L197.095 308.969C196.25 306.439 196.16 303.719 196.837 301.14C197.514 298.56 198.928 296.232 200.908 294.438L208.771 287.32L214.1 266.095L244.725 273.55L242.202 283.601L256.063 281.092L285.257 345.844L224.234 370.134L221.228 370.181C220.325 370.183 219.432 369.984 218.615 369.599C217.798 369.214 217.078 368.652 216.506 367.955Z" fill="#CBCBCB"/>
<path d="M259.013 322.267L276.511 316.729L290.905 341.594L318.807 385.798C320.933 385.886 322.982 386.613 324.683 387.886C326.385 389.158 327.658 390.914 328.336 392.923C329.013 394.932 329.062 397.098 328.476 399.134C327.89 401.171 326.697 402.983 325.055 404.33C323.412 405.677 321.398 406.496 319.278 406.678C317.158 406.86 315.033 406.397 313.183 405.35C311.333 404.303 309.846 402.722 308.919 400.815C307.991 398.908 307.667 396.766 307.988 394.671L275.248 353.288L259.013 322.267Z" fill="#A0616A"/>
<path d="M238.769 296.151C237.364 293.757 236.682 291.01 236.803 288.24C236.924 285.47 237.844 282.793 239.452 280.529C240.913 278.339 242.984 276.622 245.411 275.587C247.838 274.553 250.515 274.246 253.114 274.705C254.968 275.012 256.733 275.72 258.284 276.776C259.836 277.833 261.137 279.214 262.098 280.823C271.155 294.996 281.08 317.719 281.179 317.946L281.336 318.308L264.068 339.485L238.769 296.151Z" fill="#CBCBCB"/>
<path d="M236.758 262.145C250.197 262.145 261.091 251.296 261.091 237.913C261.091 224.53 250.197 213.68 236.758 213.68C223.319 213.68 212.425 224.53 212.425 237.913C212.425 251.296 223.319 262.145 236.758 262.145Z" fill="#A0616A"/>
<path d="M193.756 227.691C206.701 227.691 217.195 217.241 217.195 204.349C217.195 191.458 206.701 181.008 193.756 181.008C180.81 181.008 170.316 191.458 170.316 204.349C170.316 217.241 180.81 227.691 193.756 227.691Z" fill="#79A7E6"/>
<path d="M173.539 223.678C176.572 225.861 180.087 227.29 183.789 227.843C187.49 228.397 191.271 228.059 194.815 226.859C198.359 225.659 201.563 223.632 204.159 220.946C206.754 218.26 208.666 214.994 209.735 211.421C209.331 214.623 208.264 217.706 206.603 220.477C204.942 223.247 202.722 225.645 200.083 227.518C197.444 229.391 194.444 230.698 191.273 231.359C188.101 232.019 184.826 232.017 181.655 231.353C178.484 230.689 175.486 229.378 172.85 227.502C170.213 225.626 167.996 223.226 166.338 220.453C164.68 217.681 163.617 214.596 163.217 211.394C162.816 208.192 163.087 204.942 164.011 201.849C163.486 206.004 164.094 210.223 165.77 214.064C167.446 217.905 170.13 221.226 173.539 223.678Z" fill="#79A7E6"/>
<path d="M266.04 223.704C261.948 216.409 260.382 213.361 255.106 208.925C250.44 205.002 244.702 203.85 240.073 207.567C234.597 205.211 228.504 204.677 222.699 206.044C216.894 207.411 211.687 210.606 207.851 215.155C204.014 219.704 201.754 225.364 201.405 231.294C201.056 237.224 202.637 243.108 205.914 248.072C209.19 253.036 213.987 256.815 219.592 258.848C225.197 260.88 231.311 261.058 237.026 259.355C242.741 257.652 247.751 254.158 251.313 249.394C254.875 244.629 256.799 238.847 256.799 232.906C256.795 231.863 256.732 230.821 256.61 229.785C260.633 229.222 262.016 224.267 266.04 223.704Z" fill="#79A7E6"/>
<path d="M504.052 658H1.31951C0.969552 658 0.633929 657.862 0.386474 657.615C0.139018 657.369 0 657.034 0 656.686C0 656.338 0.139018 656.003 0.386474 655.757C0.633929 655.51 0.969552 655.372 1.31951 655.372H504.052C504.401 655.372 504.737 655.51 504.985 655.757C505.232 656.003 505.371 656.338 505.371 656.686C505.371 657.034 505.232 657.369 504.985 657.615C504.737 657.862 504.401 658 504.052 658Z" fill="#CBCBCB"/>
<path d="M1175.68 658H672.949C672.599 658 672.264 657.862 672.016 657.615C671.769 657.369 671.63 657.034 671.63 656.686C671.63 656.338 671.769 656.003 672.016 655.757C672.264 655.51 672.599 655.372 672.949 655.372H1175.68C1176.03 655.372 1176.37 655.51 1176.61 655.757C1176.86 656.003 1177 656.338 1177 656.686C1177 657.034 1176.86 657.369 1176.61 657.615C1176.37 657.862 1176.03 658 1175.68 658Z" fill="#CBCBCB"/>
<path d="M520.279 25.9518H517.64V424.153H520.279V25.9518Z" fill="#CBCBCB"/>
</g>
<defs>
<clipPath id="clip0">
<rect width="1177" height="658" fill="white"/>
</clipPath>
</defs>
</svg>
