<svg width="24" height="24" viewBox="0 0 24 24" fill="none" xmlns="http://www.w3.org/2000/svg">
<g clip-path="url(#clip0)">
<path d="M23.094 9.91355L13.3046 9.91309C12.8724 9.91309 12.522 10.2634 12.522 10.6957V13.823C12.522 14.2552 12.8724 14.6056 13.3046 14.6056H18.8174C18.2137 16.1722 17.087 17.4842 15.6496 18.3178L18.0002 22.387C21.7709 20.2062 24.0002 16.3799 24.0002 12.0965C24.0002 11.4866 23.9553 11.0506 23.8653 10.5597C23.797 10.1867 23.4732 9.91355 23.094 9.91355Z" fill="#167EE6"/>
<path d="M11.9998 19.3044C9.30193 19.3044 6.94675 17.8304 5.68182 15.6492L1.61279 17.9945C3.6835 21.5834 7.56259 24.0001 11.9998 24.0001C14.1765 24.0001 16.2304 23.414 17.9998 22.3927V22.3871L15.6491 18.3179C14.5739 18.9415 13.3297 19.3044 11.9998 19.3044Z" fill="#12B347"/>
<path d="M18 22.3924V22.3868L15.6494 18.3176C14.5741 18.9412 13.33 19.3042 12 19.3042V23.9999C14.1767 23.9999 16.2308 23.4138 18 22.3924Z" fill="#0F993E"/>
<path d="M4.69566 12C4.69566 10.6702 5.05856 9.42613 5.68205 8.35096L1.61302 6.00562C0.586031 7.76938 0 9.81772 0 12C0 14.1823 0.586031 16.2307 1.61302 17.9945L5.68205 15.6491C5.05856 14.5739 4.69566 13.3298 4.69566 12Z" fill="#FFD500"/>
<path d="M11.9998 4.69566C13.759 4.69566 15.375 5.32078 16.6372 6.36061C16.9486 6.61711 17.4012 6.59859 17.6864 6.31336L19.9022 4.09758C20.2258 3.77395 20.2028 3.24422 19.8571 2.94431C17.7423 1.10967 14.9907 0 11.9998 0C7.56259 0 3.6835 2.41673 1.61279 6.00558L5.68182 8.35092C6.94675 6.16969 9.30193 4.69566 11.9998 4.69566Z" fill="#FF4B26"/>
<path d="M16.6374 6.36061C16.9488 6.61711 17.4015 6.59859 17.6866 6.31336L19.9024 4.09758C20.226 3.77395 20.2029 3.24422 19.8573 2.94431C17.7425 1.10963 14.991 0 12 0V4.69566C13.7592 4.69566 15.3752 5.32078 16.6374 6.36061Z" fill="#D93F21"/>
</g>
<defs>
<clipPath id="clip0">
<rect width="24" height="24" fill="white"/>
</clipPath>
</defs>
</svg>
