<svg width="21" height="21" viewBox="0 0 21 21" fill="none" xmlns="http://www.w3.org/2000/svg">
<path d="M8.54159 0.0833435C13.213 0.0833435 16.9999 3.87027 16.9999 8.54168C16.9999 10.4564 16.3637 12.2226 15.2911 13.6403L20.1582 18.5084C20.6138 18.964 20.6138 19.7027 20.1582 20.1583C19.7026 20.6139 18.9639 20.6139 18.5083 20.1583L13.6402 15.2912C12.2225 16.3638 10.4563 17 8.54159 17C3.87018 17 0.083252 13.2131 0.083252 8.54168C0.083252 3.87027 3.87018 0.0833435 8.54159 0.0833435ZM8.54159 2.41668C5.15884 2.41668 2.41659 5.15893 2.41659 8.54168C2.41659 11.9244 5.15884 14.6667 8.54159 14.6667C11.9243 14.6667 14.6666 11.9244 14.6666 8.54168C14.6666 5.15893 11.9243 2.41668 8.54159 2.41668Z" fill="#BDBDBD"/>
</svg>
